<?xml version="1.0" encoding="UTF-8" standalone="no"?>
<!-- Generator: Adobe Illustrator 18.1.0, SVG Export Plug-In . SVG Version: 6.00 Build 0)  -->

<svg
   xmlns:dc="http://purl.org/dc/elements/1.1/"
   xmlns:cc="http://creativecommons.org/ns#"
   xmlns:rdf="http://www.w3.org/1999/02/22-rdf-syntax-ns#"
   xmlns:svg="http://www.w3.org/2000/svg"
   xmlns="http://www.w3.org/2000/svg"
   xmlns:xlink="http://www.w3.org/1999/xlink"
   xmlns:sodipodi="http://sodipodi.sourceforge.net/DTD/sodipodi-0.dtd"
   xmlns:inkscape="http://www.inkscape.org/namespaces/inkscape"
   version="1.1"
   id="svg8"
   sodipodi:docname="xoxo_50mm_3mm.svg"
   inkscape:version="0.92.3 (2405546, 2018-03-11)"
   x="0px"
   y="0px"
   viewBox="-567 425.4 170.07874 75.590547"
   enable-background="new -567 425.4 283.5 283.5"
   xml:space="preserve"
   width="45mm"
   height="20mm"><metadata
   id="metadata11"><rdf:RDF><cc:Work
       rdf:about=""><dc:format>image/svg+xml</dc:format><dc:type
         rdf:resource="http://purl.org/dc/dcmitype/StillImage" /><dc:title></dc:title></cc:Work></rdf:RDF></metadata><defs
   id="defs9" />
<sodipodi:namedview
   id="base"
   inkscape:cy="83.160314"
   inkscape:cx="137.32408"
   inkscape:zoom="1.4"
   borderopacity="1.0"
   showguides="false"
   bordercolor="#666666"
   pagecolor="#ffffff"
   showgrid="false"
   inkscape:window-maximized="1"
   inkscape:window-y="-8"
   inkscape:window-x="-8"
   inkscape:window-height="877"
   inkscape:window-width="1600"
   inkscape:current-layer="svg8"
   inkscape:document-units="mm"
   inkscape:pageshadow="2"
   inkscape:pageopacity="0.0"
   units="mm">
	</sodipodi:namedview>
<g
   id="layer2"
   inkscape:groupmode="layer"
   inkscape:label="繝ｬ繧､繝､繝ｼ 2"
   display="none"
   style="display:none"
   transform="translate(0,-207.90946)">
	
		<image
   display="inline"
   overflow="visible"
   enable-background="new    "
   width="1150"
   height="401"
   id="image76"
   xlink:href="file:///C:/Users/T520/Downloads/F6DF22F6.jpeg"
   transform="matrix(0.75,0,0,0.75,-832.6342,397.2838)"
   sodipodi:absref="C:\Users\T520\Downloads\F6DF22F6.jpeg"
   style="display:inline;overflow:visible">
	</image>
</g>
<path
   id="path21"
   inkscape:connector-curvature="0"
   sodipodi:nodetypes="cscccccsscscsccscccsccccscccccccccccsccccccscccccsssccccccccccscccccccssccsscscssccccccccsccsscsscccccccccccccccccc"
   d="m -513.2,476.59053 c -0.6,-0.4 -0.6,-2.2 0.1,-2.9 0.2,-0.2 0.3,-0.4 0.2,-0.6 -0.3,-0.6 -0.3,-4.4 0.1,-6.1 0.1,-0.6 0.1,-0.8 -0.1,-1.3 -0.3,-0.6 -0.1,-0.4 -0.3,-0.5 0,0 -0.1,-0.1 -0.3,-0.2 -0.4,-0.1 -0.7,0 -0.9,0.2 -0.2,0.2 -4.7,5 -5,5 -0.1,0 -0.3,0.2 -0.4,0.5 -0.1,0.3 -0.3,0.5 -0.4,0.5 -0.1,0 -0.5,0.4 -1,0.8 -0.5,0.5 -1,0.8 -1.1,0.8 -0.1,0 -0.4,0.1 -0.7,0.2 -0.4,0.2 -0.5,0.2 -0.8,-0.1 -0.3,-0.3 -0.4,-0.4 -0.3,-0.9 0.1,-0.4 0.2,-0.7 0.5,-0.8 0.2,-0.1 0.7,-0.5 1,-0.8 0.3,-0.3 0.9,-0.6 0.9,-0.6 l 0.6,-0.5 c 0.4,-0.3 0.3,-0.2 0.7,-0.5 0.7,-0.7 0.6,-0.7 1,-1.1 0.9,-0.7 0.7,-0.7 1.4,-1.3 0.5,-0.5 -0.2,0.1 1,-0.9 0.1,-0.1 0.2,-0.3 0.2,-0.4 0,-0.1 0.2,-0.4 0.5,-0.6 2.3,-2.3 2.5,-2.5 1.7,-2.8 -0.5,-0.2 -4.4,-0.2 -5.1,0 -0.3,0.1 -1.2,0.2 -2.1,0.2 -1.3,0 -1.6,0 -2,-0.3 -0.6,-0.3 -0.7,-0.5 -0.5,-1.1 0.2,-0.8 2.5,-1.9 3.2,-1.5 0.5,0.2 2.4,0.4 5.8,0.3 1.8,0 3.1,-0.1 3.2,-0.2 0.1,-0.1 0.2,-0.6 0.3,-1.2 0.1,-0.6 0.3,-1.4 0.4,-1.8 0.2,-0.4 0.4,-1.1 0.5,-1.5 0.2,-1.1 0.8,-1.6 1.7,-1.6 0.6,0 0.7,0.1 1.2,0.8 l 0.5,0.8 -0.3,0.9 c -0.1,0.5 -0.3,1.1 -0.4,1.3 -0.3,0.8 -0.2,1.5 0.2,1.9 0.2,0.2 0.5,0.3 0.6,0.3 0.1,0 0.5,0.1 0.8,0.3 0.3,0.2 0.6,0.2 0.8,0.3 0.1,0.2 0.2,0.4 0.3,0.6 0.4,0.5 0.4,0.9 0,1.4 -0.6,0.7 -1.4,0.8 -3.1,0.5 -0.4,-0.1 -0.5,0 -0.8,0.5 -0.2,0.3 -0.3,0.8 -0.3,1 0,0.2 -0.1,0.4 -0.2,0.4 -0.1,0 -0.2,0.1 -0.2,0.3 -0.1,1.8 -0.3,2.2 -0.5,2.8 0,0.6 0.2,0.9 -0.1,1.7 -0.1,0.2 -0.2,1 -0.2,1.6 0,0.7 -0.1,1.5 -0.2,1.8 -0.1,0.4 -0.1,0.9 0,1.6 0.2,1.4 0,2 -0.9,2.7 -0.6,0.4 -0.8,0.4 -1.2,0.1 z m 59.4,-0.1 c -0.2,-0.2 -0.5,-0.4 -0.6,-0.4 -0.3,-0.1 0.1,-1.7 0.6,-2.5 0.2,-0.3 0.5,-0.9 0.6,-1.2 0.5,-1.8 0.7,-2.5 0.6,-3.1 0,-0.4 0,-0.9 0,-1.2 0.1,-0.4 0.1,-0.7 -0.1,-0.9 -0.1,-0.2 -0.2,-0.5 -0.2,-0.8 0,-0.2 -0.1,-0.6 -0.3,-0.8 -0.4,-0.6 -0.8,-1.3 -0.8,-1.7 0,-0.4 0.4,-0.9 0.8,-0.9 0.1,0 0.4,-0.1 0.6,-0.2 0.4,-0.2 1.1,0.1 1.8,0.7 0.5,0.4 0.5,0.5 0.4,1.1 -0.1,0.7 0.1,1.5 0.3,1.5 0.1,0 0.5,-0.3 0.9,-0.7 0.4,-0.4 0.8,-0.7 0.9,-0.7 0.1,0 0.3,-0.3 0.5,-0.6 0.2,-0.4 0.6,-0.8 0.8,-1 0.2,-0.2 0.4,-0.4 0.4,-0.5 0,-0.3 -0.7,-0.5 -1.6,-0.5 -2.3,-0.1 -7.6,0 -7.9,0.1 -0.4,0.1 -1,0.1 -3.4,-0.1 -1.3,-0.1 -1.6,-0.2 -1.9,-0.5 -0.5,-0.4 -0.5,-1 -0.1,-1.4 0.3,-0.4 0.6,-0.4 3.5,-0.3 2.5,0.1 7.7,0.2 9.1,0 0.6,-0.1 1.6,-0.2 2.1,-0.3 0.8,-0.1 1.1,-0.1 2.1,0.1 1,0.2 1.3,0.4 1.7,0.8 0.6,0.7 0.6,1 0.1,1.7 -0.2,0.3 -0.4,0.6 -0.4,0.6 0,0.4 -2.1,2.6 -2.5,2.6 -0.1,0 -0.3,0.1 -0.4,0.3 -0.7,0.7 -3.4,2.9 -3.5,2.9 -0.3,0 -0.8,0.7 -0.8,1 0,0.2 -0.1,0.4 -0.1,0.4 -0.2,0.3 -0.5,1.4 -0.7,3.3 -0.1,1.1 -0.3,2 -0.3,2.1 -0.1,0.3 -1.3,1.1 -1.6,1.1 -0.1,0.4 -0.3,0.2 -0.6,0 z m 31.9,-13.7 c -1.5,-0.1 -4.7,-0.2 -7.2,-0.2 -3.5,-0.1 -4.6,-0.2 -4.7,-0.3 -0.2,-0.2 -0.2,-0.7 -0.2,-2.2 v -2 h 4 c 6.5,0.1 11.7,0.3 11.9,0.6 0.2,0.2 0.6,2.6 0.6,3.6 v 0.7 h -0.8 c -0.6,-0.1 -2.2,-0.1 -3.6,-0.2 z"
   style="stroke-width:0.37795275;stroke-miterlimit:4;stroke-dasharray:none" />
<path
   id="rect903"
   d="m -546.1,444.29053 h 128.3 c 3.7,0 6.7,3 6.7,6.7 v 29 c 0,3.7 -3,6.7 -6.7,6.7 h -128.3 c -3.7,0 -6.7,-3 -6.7,-6.7 v -29 c 0,-3.7 3,-6.7 6.7,-6.7 z"
   style="fill:none;fill-opacity:1;stroke:#000000;stroke-width:0.37795275;stroke-linejoin:round;stroke-miterlimit:4;stroke-dasharray:none;stroke-opacity:1"
   inkscape:connector-curvature="0" />
<circle
   id="path909"
   cx="-544.29999"
   cy="465.49057"
   style="fill:none;fill-opacity:1;stroke:#000000;stroke-width:0.37795275;stroke-linejoin:round;stroke-miterlimit:4;stroke-dasharray:none;stroke-opacity:1"
   r="4.3000002" />
</svg>