<?xml version="1.0" encoding="UTF-8" standalone="no"?>
<!-- Generator: Adobe Illustrator 18.1.0, SVG Export Plug-In . SVG Version: 6.00 Build 0)  -->

<svg
   xmlns:dc="http://purl.org/dc/elements/1.1/"
   xmlns:cc="http://creativecommons.org/ns#"
   xmlns:rdf="http://www.w3.org/1999/02/22-rdf-syntax-ns#"
   xmlns:svg="http://www.w3.org/2000/svg"
   xmlns="http://www.w3.org/2000/svg"
   xmlns:xlink="http://www.w3.org/1999/xlink"
   xmlns:sodipodi="http://sodipodi.sourceforge.net/DTD/sodipodi-0.dtd"
   xmlns:inkscape="http://www.inkscape.org/namespaces/inkscape"
   version="1.1"
   id="svg8"
   sodipodi:docname="xoxa-19x19.svg"
   inkscape:version="0.92.3 (2405546, 2018-03-11)"
   x="0px"
   y="0px"
   viewBox="-567 425.4 71.811024 71.811019"
   enable-background="new -567 425.4 283.5 283.5"
   xml:space="preserve"
   width="19mm"
   height="19mm"><metadata
   id="metadata11"><rdf:RDF><cc:Work
       rdf:about=""><dc:format>image/svg+xml</dc:format><dc:type
         rdf:resource="http://purl.org/dc/dcmitype/StillImage" /><dc:title></dc:title></cc:Work></rdf:RDF></metadata><defs
   id="defs9" />
<sodipodi:namedview
   id="base"
   inkscape:cy="45.084354"
   inkscape:cx="8.5411275"
   inkscape:zoom="7.9195959"
   borderopacity="1.0"
   showguides="false"
   bordercolor="#666666"
   pagecolor="#ffffff"
   showgrid="false"
   inkscape:window-maximized="1"
   inkscape:window-y="-8"
   inkscape:window-x="-8"
   inkscape:window-height="1057"
   inkscape:window-width="1920"
   inkscape:current-layer="svg8"
   inkscape:document-units="mm"
   inkscape:pageshadow="2"
   inkscape:pageopacity="0.0"
   units="mm">
	</sodipodi:namedview>
<g
   id="layer2"
   inkscape:groupmode="layer"
   inkscape:label="繝ｬ繧､繝､繝ｼ 2"
   display="none"
   style="display:none"
   transform="translate(0,-211.68899)">
	
		<image
   display="inline"
   overflow="visible"
   enable-background="new    "
   width="1150"
   height="401"
   id="image76"
   xlink:href="file:///C:/Users/T520/Downloads/F6DF22F6.jpeg"
   transform="matrix(0.75,0,0,0.75,-832.6342,397.2838)"
   sodipodi:absref="C:\Users\T520\Downloads\F6DF22F6.jpeg"
   style="display:inline;overflow:visible">
	</image>
</g>
<path
   id="path21"
   inkscape:connector-curvature="0"
   sodipodi:nodetypes="cscccccsscscsccscccsccccscccccccccccsccccccscccccsssccccccccc"
   d="m -546.66547,468.72871 c -0.38091,-0.25394 -0.38091,-1.39665 0.0635,-1.84105 0.12696,-0.12697 0.19046,-0.25394 0.12696,-0.3809 -0.19044,-0.38092 -0.19044,-2.79332 0.0635,-3.87258 0.0634,-0.38089 0.0634,-0.50786 -0.0635,-0.82529 -0.19044,-0.38091 -0.0634,-0.25394 -0.19044,-0.31742 0,0 -0.0635,-0.0635 -0.19045,-0.12696 -0.25395,-0.0635 -0.4444,0 -0.57137,0.12696 -0.12697,0.12698 -2.98378,3.17422 -3.17422,3.17422 -0.0634,0 -0.19046,0.12698 -0.25395,0.31744 -0.0634,0.19046 -0.19044,0.31742 -0.25394,0.31742 -0.0634,0 -0.31743,0.25393 -0.63484,0.50786 -0.31742,0.31743 -0.63485,0.5079 -0.69834,0.5079 -0.0634,0 -0.25393,0.0634 -0.44439,0.12697 -0.25394,0.12696 -0.31741,0.12696 -0.50787,-0.0634 -0.19045,-0.19046 -0.25393,-0.25394 -0.19045,-0.57135 0.0634,-0.25395 0.12696,-0.4444 0.31742,-0.50789 0.12697,-0.0634 0.44439,-0.31742 0.63485,-0.50786 0.19044,-0.19046 0.57136,-0.38092 0.57136,-0.38092 l 0.38091,-0.31743 c 0.25392,-0.19043 0.19046,-0.12697 0.44439,-0.31741 0.44439,-0.4444 0.3809,-0.4444 0.63485,-0.69835 0.57135,-0.44439 0.44439,-0.44439 0.88878,-0.82529 0.31741,-0.31742 -0.12698,0.0634 0.63484,-0.57135 0.0634,-0.0635 0.12698,-0.19045 0.12698,-0.25394 0,-0.0634 0.12698,-0.25394 0.31743,-0.38091 1.46014,-1.46015 1.58711,-1.58712 1.07924,-1.77757 -0.31743,-0.12697 -2.79333,-0.12697 -3.23772,0 -0.19046,0.0635 -0.76182,0.12698 -1.33318,0.12698 -0.8253,0 -1.01576,0 -1.2697,-0.19046 -0.38089,-0.19045 -0.44438,-0.3174 -0.31741,-0.69833 0.12698,-0.50787 1.58711,-1.2062 2.03151,-0.95226 0.31741,0.12698 1.52363,0.25394 3.6821,0.19046 1.14273,0 1.96802,-0.0634 2.03151,-0.12698 0.0634,-0.0635 0.12697,-0.3809 0.19045,-0.7618 0.0635,-0.38092 0.19046,-0.8888 0.25394,-1.14272 0.12698,-0.25396 0.25393,-0.69836 0.31741,-0.95228 0.12699,-0.69833 0.5079,-1.01576 1.07924,-1.01576 0.38091,0 0.4444,0.0635 0.76183,0.50789 l 0.31741,0.50787 -0.19044,0.57136 c -0.0635,0.31742 -0.19045,0.69833 -0.25394,0.8253 -0.19046,0.50788 -0.12699,0.95227 0.12697,1.2062 0.12697,0.12699 0.31741,0.19046 0.3809,0.19046 0.0634,0 0.31742,0.0635 0.50789,0.19046 0.19044,0.12698 0.3809,0.12698 0.50786,0.19044 0.0634,0.12699 0.12698,0.25395 0.19046,0.38092 0.25394,0.31742 0.25394,0.57137 0,0.88877 -0.38092,0.4444 -0.88879,0.50789 -1.96803,0.31743 -0.25394,-0.0634 -0.31741,0 -0.50787,0.31743 -0.12697,0.19044 -0.19045,0.50787 -0.19045,0.63484 0,0.12698 -0.0634,0.25394 -0.12697,0.25394 -0.0634,0 -0.12697,0.0634 -0.12697,0.19046 -0.0634,1.14271 -0.19046,1.39665 -0.31744,1.77756 0,0.3809 0.12698,0.57137 -0.0634,1.07924 -0.0634,0.12698 -0.12698,0.63484 -0.12698,1.01576 0,0.44439 -0.0634,0.95226 -0.12697,1.1427 -0.0634,0.25394 -0.0634,0.57138 0,1.01577 0.12697,0.88879 0,1.26968 -0.57138,1.71408 -0.3809,0.25394 -0.50786,0.25394 -0.7618,0.0634 z"
   style="stroke-width:0.2399417;stroke-miterlimit:4;stroke-dasharray:none" />


<rect
   style="fill:none;fill-opacity:1;stroke:#000000;stroke-width:0.59347957;stroke-linecap:round;stroke-linejoin:round;stroke-miterlimit:0;stroke-dasharray:none;stroke-opacity:1;paint-order:normal"
   id="rect4521"
   width="71.217545"
   height="71.217545"
   x="-566.70325"
   y="425.69675" /><path
   id="path21-8"
   inkscape:connector-curvature="0"
   sodipodi:nodetypes="cscccccccssccsscscssccccccccsccsscsscccccccccccccccccc"
   d="m -531.36323,468.66625 c -0.12698,-0.12699 -0.31742,-0.25396 -0.38091,-0.25396 -0.19044,-0.0634 0.0634,-1.07923 0.38091,-1.5871 0.12698,-0.19045 0.31744,-0.57137 0.38091,-0.76181 0.31742,-1.14273 0.44439,-1.58712 0.38091,-1.96803 v -0.76183 c 0.0634,-0.25393 0.0634,-0.44438 -0.0634,-0.57135 -0.0634,-0.12697 -0.12698,-0.31743 -0.12698,-0.50788 0,-0.12696 -0.0634,-0.38089 -0.19046,-0.50786 -0.25393,-0.38092 -0.50786,-0.82531 -0.50786,-1.07925 0,-0.25393 0.25393,-0.57135 0.50786,-0.57135 0.0634,0 0.25394,-0.0635 0.38092,-0.12697 0.25394,-0.12699 0.69833,0.0634 1.14272,0.44437 0.31742,0.25393 0.31742,0.31742 0.25393,0.69831 -0.0634,0.44441 0.0634,0.95229 0.19046,0.95229 0.0634,0 0.31742,-0.19045 0.57135,-0.44439 0.25395,-0.25394 0.50789,-0.4444 0.57137,-0.4444 0.0634,0 0.19045,-0.19045 0.31744,-0.3809 0.12697,-0.25394 0.38089,-0.50788 0.50786,-0.63485 0.12697,-0.12696 0.25393,-0.25393 0.25393,-0.31742 0,-0.19045 -0.44439,-0.31741 -1.01575,-0.31741 -1.46015,-0.0634 -4.82482,0 -5.01527,0.0634 -0.25394,0.0634 -0.63486,0.0634 -2.15848,-0.0634 -0.82529,-0.0634 -1.01576,-0.12699 -1.20622,-0.31744 -0.3174,-0.25394 -0.3174,-0.63484 -0.0634,-0.88878 0.19044,-0.25394 0.3809,-0.25394 2.22194,-0.19046 1.58713,0.0635 4.88832,0.12697 5.77711,0 0.38089,-0.0634 1.01575,-0.12696 1.33317,-0.19044 0.50788,-0.0634 0.69834,-0.0634 1.33318,0.0635 0.63484,0.12696 0.8253,0.25391 1.07924,0.50786 0.38091,0.44439 0.38091,0.63485 0.0634,1.07924 -0.12697,0.19046 -0.25394,0.38092 -0.25394,0.38092 0,0.25392 -1.33318,1.65058 -1.58712,1.65058 -0.0634,0 -0.19045,0.0634 -0.25395,0.19046 -0.44439,0.44439 -2.15846,1.84105 -2.22195,1.84105 -0.19045,0 -0.50787,0.4444 -0.50787,0.63485 0,0.12698 -0.0634,0.25394 -0.0634,0.25394 -0.12698,0.19046 -0.31742,0.88879 -0.44439,2.09498 -0.0634,0.69834 -0.19046,1.2697 -0.19046,1.33318 -0.0634,0.19046 -0.82529,0.69833 -1.01576,0.69833 -0.0634,0.25395 -0.19045,0.12698 -0.38089,0 z m 20.25159,-8.69739 c -0.95227,-0.0634 -2.98378,-0.12697 -4.5709,-0.12697 -2.22195,-0.0635 -2.92029,-0.12699 -2.98378,-0.19046 -0.12697,-0.12697 -0.12697,-0.4444 -0.12697,-1.39668 v -1.26967 h 2.53937 c 4.12651,0.0634 7.42771,0.19046 7.55467,0.38091 0.12698,0.12697 0.38092,1.65059 0.38092,2.28544 v 0.4444 h -0.50788 c -0.3809,-0.0635 -1.39666,-0.0635 -2.28544,-0.12697 z"
   style="stroke-width:0.2399417;stroke-miterlimit:4;stroke-dasharray:none" /></svg>