<?xml version="1.0" encoding="UTF-8" standalone="no"?>
<!-- Generator: Adobe Illustrator 18.1.0, SVG Export Plug-In . SVG Version: 6.00 Build 0)  -->

<svg
   xmlns:dc="http://purl.org/dc/elements/1.1/"
   xmlns:cc="http://creativecommons.org/ns#"
   xmlns:rdf="http://www.w3.org/1999/02/22-rdf-syntax-ns#"
   xmlns:svg="http://www.w3.org/2000/svg"
   xmlns="http://www.w3.org/2000/svg"
   xmlns:xlink="http://www.w3.org/1999/xlink"
   xmlns:sodipodi="http://sodipodi.sourceforge.net/DTD/sodipodi-0.dtd"
   xmlns:inkscape="http://www.inkscape.org/namespaces/inkscape"
   version="1.1"
   id="svg8"
   sodipodi:docname="xoxa12x12.svg"
   inkscape:version="0.92.3 (2405546, 2018-03-11)"
   x="0px"
   y="0px"
   viewBox="-567 425.4 45.354331 45.354328"
   enable-background="new -567 425.4 283.5 283.5"
   xml:space="preserve"
   width="12mm"
   height="12mm"><metadata
   id="metadata11"><rdf:RDF><cc:Work
       rdf:about=""><dc:format>image/svg+xml</dc:format><dc:type
         rdf:resource="http://purl.org/dc/dcmitype/StillImage" /><dc:title></dc:title></cc:Work></rdf:RDF></metadata><defs
   id="defs9" />
<sodipodi:namedview
   id="base"
   inkscape:cy="45.084354"
   inkscape:cx="29.628062"
   inkscape:zoom="7.9195959"
   borderopacity="1.0"
   showguides="false"
   bordercolor="#666666"
   pagecolor="#ffffff"
   showgrid="false"
   inkscape:window-maximized="1"
   inkscape:window-y="-8"
   inkscape:window-x="-8"
   inkscape:window-height="1057"
   inkscape:window-width="1920"
   inkscape:current-layer="svg8"
   inkscape:document-units="mm"
   inkscape:pageshadow="2"
   inkscape:pageopacity="0.0"
   units="mm">
	</sodipodi:namedview>
<g
   id="layer2"
   inkscape:groupmode="layer"
   inkscape:label="繝ｬ繧､繝､繝ｼ 2"
   display="none"
   style="display:none"
   transform="translate(0,-238.14568)">
	
		<image
   display="inline"
   overflow="visible"
   enable-background="new    "
   width="1150"
   height="401"
   id="image76"
   xlink:href="file:///C:/Users/T520/Downloads/F6DF22F6.jpeg"
   transform="matrix(0.75,0,0,0.75,-832.6342,397.2838)"
   sodipodi:absref="C:\Users\T520\Downloads\F6DF22F6.jpeg"
   style="display:inline;overflow:visible">
	</image>
</g>
<path
   id="path21"
   inkscape:connector-curvature="0"
   sodipodi:nodetypes="cscccccsscscsccscccsccccscccccccccccsccccccscccccsssccccccccc"
   d="m -555.04181,459.94315 c -0.64099,-0.42731 -0.64099,-2.35027 0.10682,-3.09807 0.21368,-0.21367 0.32052,-0.42735 0.21368,-0.64099 -0.32051,-0.64101 -0.32051,-4.70055 0.10682,-6.5167 0.10682,-0.64096 0.10682,-0.85463 -0.10682,-1.38878 -0.32051,-0.64098 -0.10682,-0.42732 -0.32051,-0.53416 0,0 -0.10682,-0.10682 -0.32047,-0.21365 -0.42733,-0.10683 -0.74782,0 -0.96148,0.21365 -0.21368,0.2137 -5.02104,5.34154 -5.34152,5.34154 -0.10682,0 -0.3205,0.21366 -0.42735,0.53417 -0.10682,0.3205 -0.32047,0.53414 -0.42732,0.53414 -0.10682,0 -0.53415,0.42731 -1.06831,0.85464 -0.53414,0.53414 -1.0683,0.85466 -1.17514,0.85466 -0.10682,0 -0.42731,0.10682 -0.74781,0.21367 -0.42731,0.21366 -0.53413,0.21366 -0.85464,-0.10682 -0.3205,-0.32049 -0.42731,-0.42733 -0.3205,-0.96146 0.10682,-0.42735 0.21367,-0.74782 0.53415,-0.85467 0.21368,-0.10682 0.74783,-0.53413 1.06832,-0.85462 0.32048,-0.32051 0.96148,-0.64101 0.96148,-0.64101 l 0.64099,-0.53416 c 0.42731,-0.32046 0.32049,-0.21365 0.74781,-0.53414 0.74782,-0.74781 0.64097,-0.74781 1.06832,-1.17516 0.96145,-0.74781 0.7478,-0.74781 1.4956,-1.38877 0.53415,-0.53416 -0.21366,0.10682 1.06833,-0.96148 0.10682,-0.10682 0.21367,-0.32048 0.21367,-0.42732 0,-0.10682 0.21368,-0.42732 0.53415,-0.64098 2.45711,-2.45712 2.67076,-2.67077 1.81612,-2.99126 -0.53414,-0.21367 -4.70054,-0.21367 -5.44836,0 -0.3205,0.10682 -1.28198,0.21368 -2.24345,0.21368 -1.38881,0 -1.7093,0 -2.13662,-0.3205 -0.64098,-0.32048 -0.7478,-0.53414 -0.53416,-1.17515 0.2137,-0.85461 2.67078,-2.02976 3.41861,-1.60244 0.53413,0.21368 2.56394,0.42732 6.19617,0.3205 1.92297,0 3.31174,-0.10682 3.41859,-0.21369 0.10682,-0.10682 0.21365,-0.64097 0.32048,-1.28194 0.10682,-0.64099 0.32051,-1.49563 0.42733,-1.92295 0.21366,-0.42735 0.42732,-1.17517 0.53414,-1.60248 0.21368,-1.17512 0.85465,-1.70929 1.81612,-1.70929 0.64098,0 0.74782,0.10682 1.28199,0.85466 l 0.53413,0.85463 -0.32048,0.96149 c -0.10682,0.53414 -0.32048,1.17514 -0.42732,1.3888 -0.3205,0.85464 -0.21369,1.60246 0.21367,2.02977 0.21366,0.21369 0.53413,0.3205 0.64098,0.3205 0.10682,0 0.53414,0.10682 0.85466,0.3205 0.32047,0.21367 0.64097,0.21367 0.85461,0.32047 0.10682,0.2137 0.21368,0.42734 0.32051,0.64101 0.42731,0.53414 0.42731,0.96147 0,1.49561 -0.64101,0.7478 -1.49564,0.85466 -3.31177,0.53415 -0.42731,-0.10682 -0.53412,0 -0.85463,0.53416 -0.21367,0.32049 -0.32049,0.85465 -0.32049,1.06831 0,0.21368 -0.10682,0.42732 -0.21367,0.42732 -0.10682,0 -0.21367,0.10682 -0.21367,0.3205 -0.10682,1.92294 -0.32048,2.35026 -0.53417,2.99124 0,0.64099 0.21369,0.9615 -0.10682,1.81613 -0.10682,0.21367 -0.21366,1.06831 -0.21366,1.70931 0,0.7478 -0.10682,1.60243 -0.21367,1.92292 -0.10682,0.42732 -0.10682,0.9615 0,1.70931 0.21367,1.49562 0,2.13662 -0.9615,2.88442 -0.64097,0.42732 -0.85462,0.42732 -1.28196,0.10682 z"
   style="stroke-width:0.40376943;stroke-miterlimit:4;stroke-dasharray:none" />


<rect
   style="fill:none;fill-opacity:1;stroke:#000000;stroke-width:0.37795275;stroke-linecap:round;stroke-linejoin:round;stroke-miterlimit:0;stroke-dasharray:none;stroke-opacity:1;paint-order:normal"
   id="rect4521"
   width="45.354328"
   height="45.354328"
   x="-566.81104"
   y="425.21103" /><path
   id="path21-8"
   inkscape:connector-curvature="0"
   sodipodi:nodetypes="cscccccccssccsscscssccccccccsccsscsscccccc"
   d="m -533.67839,459.83805 c -0.21366,-0.21369 -0.53414,-0.42735 -0.64098,-0.42735 -0.32049,-0.10682 0.10682,-1.8161 0.64098,-2.67076 0.21367,-0.32049 0.53416,-0.96147 0.64098,-1.28197 0.53415,-1.92295 0.74782,-2.67074 0.64101,-3.31176 v -1.28197 c 0.10682,-0.42732 0.10682,-0.74782 -0.10682,-0.96146 -0.10682,-0.21369 -0.21368,-0.53417 -0.21368,-0.85466 0,-0.21365 -0.10682,-0.64097 -0.32051,-0.85462 -0.42731,-0.641 -0.85462,-1.38883 -0.85462,-1.81614 0,-0.4273 0.42731,-0.96147 0.85462,-0.96147 0.10682,0 0.42732,-0.10683 0.64101,-0.21366 0.42733,-0.21369 1.17514,0.10682 1.92295,0.74778 0.53414,0.42731 0.53414,0.53416 0.42731,1.17512 -0.10682,0.74783 0.10682,1.60249 0.32051,1.60249 0.10682,0 0.53413,-0.3205 0.96147,-0.74783 0.42732,-0.42731 0.85465,-0.7478 0.96147,-0.7478 0.10682,0 0.32049,-0.32051 0.53416,-0.64098 0.21367,-0.42734 0.64097,-0.85466 0.85462,-1.06831 0.21367,-0.21366 0.42733,-0.42733 0.42733,-0.53416 0,-0.32048 -0.74781,-0.53413 -1.70929,-0.53413 -2.45711,-0.10682 -8.11912,0 -8.4396,0.10682 -0.42733,0.10682 -1.06832,0.10682 -3.63225,-0.10682 -1.3888,-0.10682 -1.7093,-0.2137 -2.0298,-0.53417 -0.53413,-0.42734 -0.53413,-1.0683 -0.10682,-1.49563 0.32049,-0.42733 0.64097,-0.42733 3.73905,-0.3205 2.67078,0.10682 8.22595,0.21367 9.7216,0 0.64097,-0.10682 1.70928,-0.21366 2.24345,-0.32047 0.85464,-0.10682 1.17513,-0.10682 2.24346,0.10682 1.06828,0.21365 1.38878,0.42729 1.8161,0.85461 0.64099,0.74783 0.64099,1.06832 0.10682,1.81613 -0.21368,0.32051 -0.42733,0.64102 -0.42733,0.64102 0,0.4273 -2.24345,2.77756 -2.67077,2.77756 -0.10682,0 -0.32049,0.10682 -0.42734,0.32051 -0.74782,0.74782 -3.63224,3.09809 -3.73907,3.09809 -0.3205,0 -0.85462,0.74781 -0.85462,1.06831 0,0.21367 -0.10682,0.42732 -0.10682,0.42732 -0.21371,0.3205 -0.53418,1.49563 -0.74782,3.5254 -0.10682,1.17515 -0.32051,2.1366 -0.32051,2.24344 -0.10682,0.32051 -1.38879,1.17513 -1.7093,1.17513 -0.10682,0.42735 -0.32051,0.2137 -0.64097,0 z"
   style="stroke-width:0.40376943;stroke-miterlimit:4;stroke-dasharray:none" /></svg>